<mxfile host="app.diagrams.net" modified="2024-05-19T11:57:23.069Z" agent="Mozilla/5.0 (Windows NT 10.0; Win64; x64) AppleWebKit/537.36 (KHTML, like Gecko) Chrome/123.0.0.0 Safari/537.36 OPR/109.0.0.0" etag="nvk3EJBsqP1LiQyfrtGh" version="24.4.4" type="google">
  <diagram name="Pagina-1" id="VUlYnsphdI4rZMWW2qny">
    <mxGraphModel grid="1" page="1" gridSize="10" guides="1" tooltips="1" connect="1" arrows="1" fold="1" pageScale="1" pageWidth="827" pageHeight="1169" math="0" shadow="0">
      <root>
        <mxCell id="0" />
        <mxCell id="1" parent="0" />
        <mxCell id="g-jlZgv1migss0Au6V9A-1" value="menuMgr:&amp;nbsp;&lt;div&gt;MenuManager&lt;/div&gt;" style="shape=umlLifeline;perimeter=lifelinePerimeter;whiteSpace=wrap;html=1;container=1;dropTarget=0;collapsible=0;recursiveResize=0;outlineConnect=0;portConstraint=eastwest;newEdgeStyle={&quot;curved&quot;:0,&quot;rounded&quot;:0};" vertex="1" parent="1">
          <mxGeometry x="310" y="160" width="100" height="520" as="geometry" />
        </mxCell>
        <mxCell id="g-jlZgv1migss0Au6V9A-8" value="" style="html=1;points=[[0,0,0,0,5],[0,1,0,0,-5],[1,0,0,0,5],[1,1,0,0,-5]];perimeter=orthogonalPerimeter;outlineConnect=0;targetShapes=umlLifeline;portConstraint=eastwest;newEdgeStyle={&quot;curved&quot;:0,&quot;rounded&quot;:0};" vertex="1" parent="g-jlZgv1migss0Au6V9A-1">
          <mxGeometry x="45" y="80" width="10" height="390" as="geometry" />
        </mxCell>
        <mxCell id="g-jlZgv1migss0Au6V9A-9" value="checkTable(shiftTable)" style="html=1;verticalAlign=bottom;endArrow=block;curved=0;rounded=0;entryX=0;entryY=0;entryDx=0;entryDy=5;" edge="1" parent="g-jlZgv1migss0Au6V9A-1" target="g-jlZgv1migss0Au6V9A-8">
          <mxGeometry relative="1" as="geometry">
            <mxPoint x="-150" y="85" as="sourcePoint" />
            <Array as="points" />
          </mxGeometry>
        </mxCell>
        <mxCell id="g-jlZgv1migss0Au6V9A-2" value="UI" style="shape=folder;fontStyle=1;spacingTop=10;tabWidth=40;tabHeight=14;tabPosition=left;html=1;whiteSpace=wrap;" vertex="1" parent="1">
          <mxGeometry x="120" y="140" width="80" height="60" as="geometry" />
        </mxCell>
        <mxCell id="g-jlZgv1migss0Au6V9A-6" value="" style="endArrow=none;dashed=1;html=1;rounded=0;entryX=0.5;entryY=1;entryDx=0;entryDy=0;entryPerimeter=0;" edge="1" parent="1" target="g-jlZgv1migss0Au6V9A-2">
          <mxGeometry width="50" height="50" relative="1" as="geometry">
            <mxPoint x="160" y="690" as="sourcePoint" />
            <mxPoint x="440" y="420" as="targetPoint" />
          </mxGeometry>
        </mxCell>
        <mxCell id="g-jlZgv1migss0Au6V9A-7" value="&lt;font style=&quot;font-size: 24px;&quot;&gt;4 - checkTable&lt;/font&gt;" style="text;html=1;align=center;verticalAlign=middle;resizable=0;points=[];autosize=1;strokeColor=none;fillColor=none;" vertex="1" parent="1">
          <mxGeometry x="240" y="23" width="180" height="40" as="geometry" />
        </mxCell>
        <mxCell id="g-jlZgv1migss0Au6V9A-11" value="shiftMgr.currentShiftTable:&lt;div&gt;ShiftTable&lt;/div&gt;" style="shape=umlLifeline;perimeter=lifelinePerimeter;whiteSpace=wrap;html=1;container=1;dropTarget=0;collapsible=0;recursiveResize=0;outlineConnect=0;portConstraint=eastwest;newEdgeStyle={&quot;curved&quot;:0,&quot;rounded&quot;:0};" vertex="1" parent="1">
          <mxGeometry x="450" y="160" width="140" height="510" as="geometry" />
        </mxCell>
        <mxCell id="g-jlZgv1migss0Au6V9A-12" value="alt&lt;div&gt;[shiftTable.isEmpty()]&lt;/div&gt;" style="shape=umlFrame;whiteSpace=wrap;html=1;pointerEvents=0;width=130;height=40;" vertex="1" parent="1">
          <mxGeometry x="-20" y="270" width="880" height="410" as="geometry" />
        </mxCell>
        <mxCell id="g-jlZgv1migss0Au6V9A-14" value="" style="endArrow=none;dashed=1;html=1;dashPattern=1 3;strokeWidth=2;rounded=0;" edge="1" parent="1">
          <mxGeometry width="50" height="50" relative="1" as="geometry">
            <mxPoint x="-20" y="320" as="sourcePoint" />
            <mxPoint x="860" y="320.19999999999993" as="targetPoint" />
          </mxGeometry>
        </mxCell>
        <mxCell id="g-jlZgv1migss0Au6V9A-10" value="throw UseCaseLogicException" style="html=1;verticalAlign=bottom;endArrow=open;dashed=1;endSize=8;curved=0;rounded=0;exitX=0;exitY=1;exitDx=0;exitDy=-5;" edge="1" parent="1">
          <mxGeometry relative="1" as="geometry">
            <mxPoint x="160" y="300" as="targetPoint" />
            <mxPoint x="355" y="299.9999999999998" as="sourcePoint" />
          </mxGeometry>
        </mxCell>
        <mxCell id="g-jlZgv1migss0Au6V9A-15" value="checkTable(shiftTable)" style="html=1;verticalAlign=bottom;endArrow=block;curved=0;rounded=0;" edge="1" parent="1" source="g-jlZgv1migss0Au6V9A-8" target="g-jlZgv1migss0Au6V9A-16">
          <mxGeometry relative="1" as="geometry">
            <mxPoint x="390" y="360" as="sourcePoint" />
            <Array as="points">
              <mxPoint x="400" y="360" />
            </Array>
            <mxPoint x="480" y="360" as="targetPoint" />
          </mxGeometry>
        </mxCell>
        <mxCell id="g-jlZgv1migss0Au6V9A-16" value="" style="html=1;points=[[0,0,0,0,5],[0,1,0,0,-5],[1,0,0,0,5],[1,1,0,0,-5]];perimeter=orthogonalPerimeter;outlineConnect=0;targetShapes=umlLifeline;portConstraint=eastwest;newEdgeStyle={&quot;curved&quot;:0,&quot;rounded&quot;:0};" vertex="1" parent="1">
          <mxGeometry x="515" y="360" width="10" height="80" as="geometry" />
        </mxCell>
        <mxCell id="g-jlZgv1migss0Au6V9A-17" value="ShiftTable" style="html=1;verticalAlign=bottom;endArrow=open;dashed=1;endSize=8;curved=0;rounded=0;" edge="1" parent="1">
          <mxGeometry relative="1" as="geometry">
            <mxPoint x="515" y="440" as="sourcePoint" />
            <mxPoint x="365" y="440" as="targetPoint" />
          </mxGeometry>
        </mxCell>
        <mxCell id="g-jlZgv1migss0Au6V9A-19" value="" style="html=1;points=[[0,0,0,0,5],[0,1,0,0,-5],[1,0,0,0,5],[1,1,0,0,-5]];perimeter=orthogonalPerimeter;outlineConnect=0;targetShapes=umlLifeline;portConstraint=eastwest;newEdgeStyle={&quot;curved&quot;:0,&quot;rounded&quot;:0};" vertex="1" parent="1">
          <mxGeometry x="360" y="530" width="10" height="40" as="geometry" />
        </mxCell>
        <mxCell id="g-jlZgv1migss0Au6V9A-20" value="notifyTableOpened(shiftTable)" style="html=1;align=left;spacingLeft=2;endArrow=block;rounded=0;edgeStyle=orthogonalEdgeStyle;curved=0;rounded=0;" edge="1" parent="1" target="g-jlZgv1migss0Au6V9A-19">
          <mxGeometry relative="1" as="geometry">
            <mxPoint x="365" y="510" as="sourcePoint" />
            <Array as="points">
              <mxPoint x="395" y="540" />
            </Array>
          </mxGeometry>
        </mxCell>
        <mxCell id="g-jlZgv1migss0Au6V9A-21" value="er:&lt;div&gt;DutyEventReceiver&lt;/div&gt;" style="shape=umlLifeline;perimeter=lifelinePerimeter;whiteSpace=wrap;html=1;container=1;dropTarget=0;collapsible=0;recursiveResize=0;outlineConnect=0;portConstraint=eastwest;newEdgeStyle={&quot;curved&quot;:0,&quot;rounded&quot;:0};" vertex="1" parent="1">
          <mxGeometry x="620" y="160" width="120" height="520" as="geometry" />
        </mxCell>
        <mxCell id="g-jlZgv1migss0Au6V9A-23" value="" style="html=1;points=[[0,0,0,0,5],[0,1,0,0,-5],[1,0,0,0,5],[1,1,0,0,-5]];perimeter=orthogonalPerimeter;outlineConnect=0;targetShapes=umlLifeline;portConstraint=eastwest;newEdgeStyle={&quot;curved&quot;:0,&quot;rounded&quot;:0};" vertex="1" parent="g-jlZgv1migss0Au6V9A-21">
          <mxGeometry x="55" y="385" width="10" height="45" as="geometry" />
        </mxCell>
        <mxCell id="g-jlZgv1migss0Au6V9A-22" value="updateTableOpened()shiftTable" style="html=1;verticalAlign=bottom;endArrow=block;curved=0;rounded=0;" edge="1" parent="1" target="g-jlZgv1migss0Au6V9A-23">
          <mxGeometry width="80" relative="1" as="geometry">
            <mxPoint x="370" y="560" as="sourcePoint" />
            <mxPoint x="679.5" y="560" as="targetPoint" />
          </mxGeometry>
        </mxCell>
        <mxCell id="g-jlZgv1migss0Au6V9A-24" value="for each er in receivers" style="shape=umlFrame;whiteSpace=wrap;html=1;pointerEvents=0;width=110;height=30;" vertex="1" parent="1">
          <mxGeometry x="220" y="500" width="560" height="100" as="geometry" />
        </mxCell>
        <mxCell id="g-jlZgv1migss0Au6V9A-25" value="ShiftTable" style="html=1;verticalAlign=bottom;endArrow=open;dashed=1;endSize=8;curved=0;rounded=0;" edge="1" parent="1" source="g-jlZgv1migss0Au6V9A-8">
          <mxGeometry relative="1" as="geometry">
            <mxPoint x="340" y="620" as="sourcePoint" />
            <mxPoint x="160" y="620" as="targetPoint" />
          </mxGeometry>
        </mxCell>
      </root>
    </mxGraphModel>
  </diagram>
</mxfile>
